<svg width="150" height="33" viewBox="0 0 150 33" fill="none" xmlns="http://www.w3.org/2000/svg">
<path d="M5.46858 0.813965V13.9351C5.46858 15.2487 5.79305 16.2624 6.44563 16.9763C7.10551 17.683 8.07891 18.0328 9.36221 18.0328C10.6346 18.0328 11.6116 17.683 12.2934 16.9763C12.9715 16.2624 13.3142 15.2487 13.3142 13.9351V0.813965H18.7827V13.9066C18.7827 15.8698 18.3526 17.5296 17.4995 18.8895C16.6536 20.2423 15.5089 21.2596 14.0725 21.9449C12.6324 22.6303 11.0283 22.9729 9.26013 22.9729C7.49924 22.9729 5.92065 22.6374 4.52069 21.9592C3.12803 21.2846 2.02702 20.2673 1.21038 18.9038C0.401029 17.5331 0 15.8698 0 13.9066V0.813965H5.46858Z" fill="#212121"/>
<path d="M41.8701 22.7587H36.4161L27.2726 9.22351V22.7587H21.8186V0.813965H27.2726L36.4161 14.4063V0.813965H41.8701V22.7587Z" fill="#212121"/>
<path d="M50.4904 0.813965V22.7587H45.0364V0.813965H50.4904Z" fill="#212121"/>
<path d="M67.3812 9.56628V14.0066H53.3379V9.56628H67.3812Z" fill="#212121"/>
<path d="M92.4264 0.813965L84.4787 22.7587H77.6393L69.6917 0.813965H75.4956L81.0517 17.3761L86.6515 0.813965H92.4264Z" fill="#212121"/>
<path d="M104.5 22.9731C102.389 22.9731 100.453 22.4983 98.6962 21.5453C96.9462 20.5851 95.5499 19.243 94.5109 17.519C93.4791 15.7985 92.9651 13.8639 92.9651 11.7223C92.9651 9.57346 93.4791 7.64598 94.5109 5.93979C95.5499 4.22647 96.9462 2.89508 98.6962 1.94205C100.453 0.981872 102.389 0.5 104.5 0.5C106.607 0.5 108.54 0.981872 110.29 1.94205C112.047 2.89508 113.432 4.22647 114.446 5.93979C115.456 7.64598 115.962 9.57346 115.962 11.7223C115.962 13.8639 115.452 15.7985 114.431 17.519C113.41 19.243 112.025 20.5851 110.275 21.5453C108.532 22.4983 106.607 22.9731 104.5 22.9731ZM104.5 18.1044C106.287 18.1044 107.716 17.519 108.788 16.3482C109.867 15.1774 110.406 13.6355 110.406 11.7223C110.406 9.78049 109.867 8.23493 108.788 7.08201C107.716 5.92195 106.287 5.34013 104.5 5.34013C102.692 5.34013 101.248 5.91838 100.169 7.06773C99.0972 8.20994 98.5649 9.76264 98.5649 11.7223C98.5649 13.664 99.0972 15.2167 100.169 16.3768C101.248 17.5297 102.692 18.1044 104.5 18.1044Z" fill="#212121"/>
<path d="M134.33 0.813965V5.09727H128.38V22.7587H122.926V5.09727H116.991V0.813965H134.33Z" fill="#212121"/>
<path d="M141.732 5.09727V9.53762H149.052V13.6639H141.732V18.4754H150V22.7587H136.278V0.813965H150V5.09727H141.732Z" fill="#FF00E5"/>
<path d="M7.07759 30.5581H8.5213V31.2149H6.14429V30.601L7.57341 28.5878H6.14429V27.931H8.5213V28.545L7.07759 30.5581Z" fill="#9E9E9E"/>
<path d="M13.3746 31.2149L12.2517 29.7729V31.2149H11.4351V27.931H12.2517V29.3731L13.3746 27.931H14.3225L13.0246 29.5444L14.3808 31.2149H13.3746Z" fill="#9E9E9E"/>
<path d="M19.7017 28.9876C19.7017 29.1803 19.6579 29.3552 19.5704 29.5159C19.4829 29.6693 19.3444 29.7978 19.1621 29.9013C18.9762 29.9977 18.7465 30.0441 18.4767 30.0441H17.9663V31.2149H17.1497V27.931H18.4767C18.7392 27.931 18.9616 27.981 19.1475 28.0738C19.3298 28.1595 19.4683 28.2844 19.5558 28.445C19.6506 28.6092 19.7017 28.7877 19.7017 28.9876ZM18.4184 29.4016C18.5715 29.4016 18.6845 29.3695 18.7538 29.3017C18.8303 29.2267 18.8704 29.1232 18.8704 28.9876C18.8704 28.8662 18.8303 28.7698 18.7538 28.702C18.6845 28.6271 18.5715 28.5878 18.4184 28.5878H17.9663V29.4016H18.4184Z" fill="#9E9E9E"/>
<path d="M23.6097 31.2578C23.3763 31.2578 23.1649 31.2185 22.9826 31.1436C22.7967 31.0579 22.6508 30.9508 22.5451 30.8152C22.4467 30.6831 22.3883 30.5296 22.3701 30.3583H23.1868C23.194 30.4547 23.2342 30.5296 23.3034 30.5868C23.38 30.6367 23.4784 30.6581 23.5951 30.6581C23.6899 30.6581 23.7701 30.6403 23.8284 30.601C23.8867 30.5653 23.9159 30.5154 23.9159 30.4583C23.9159 30.3833 23.8722 30.3262 23.7847 30.2869C23.7045 30.2512 23.5805 30.212 23.4055 30.1727C23.2086 30.1263 23.0482 30.0799 22.9243 30.0299C22.7967 29.9835 22.6836 29.9086 22.5889 29.8015C22.5014 29.698 22.4576 29.5552 22.4576 29.3732C22.4576 29.2304 22.5014 29.0983 22.5889 28.9734C22.6764 28.852 22.7967 28.7556 22.9534 28.6878C23.1175 28.6129 23.318 28.5736 23.5513 28.5736C23.8794 28.5736 24.1383 28.6557 24.3242 28.8163C24.5174 28.9805 24.6305 29.1947 24.6596 29.4588H23.9159C23.894 29.3732 23.8503 29.3018 23.7847 29.2447C23.7154 29.1875 23.6279 29.159 23.5222 29.159C23.4237 29.159 23.3508 29.1804 23.3034 29.2161C23.2524 29.2554 23.2305 29.3089 23.2305 29.3732C23.2305 29.441 23.267 29.4945 23.3472 29.5302C23.4237 29.5695 23.5513 29.6087 23.7263 29.6444C23.9195 29.6944 24.08 29.7408 24.2076 29.7872C24.3315 29.8372 24.4409 29.9157 24.5284 30.0299C24.6232 30.137 24.6742 30.2798 24.6742 30.4583C24.6742 30.6117 24.6305 30.751 24.543 30.8723C24.4555 30.9865 24.3279 31.0829 24.1638 31.1579C24.007 31.2221 23.8211 31.2578 23.6097 31.2578Z" fill="#9E9E9E"/>
<path d="M32.9933 29.5301C33.1866 29.5801 33.3433 29.68 33.46 29.83C33.5766 29.9727 33.635 30.1405 33.635 30.3297C33.635 30.5974 33.5365 30.8116 33.3433 30.9722C33.1464 31.1364 32.8767 31.2149 32.5267 31.2149H30.9663V27.931H32.4829C32.822 27.931 33.0845 28.0096 33.2704 28.1595C33.4636 28.313 33.5621 28.5236 33.5621 28.7877C33.5621 28.9804 33.5074 29.1411 33.4016 29.2731C33.3032 29.3981 33.1683 29.4837 32.9933 29.5301ZM31.7829 29.2589H32.3225C32.4574 29.2589 32.5595 29.2303 32.6288 29.1732C32.6944 29.1161 32.7308 29.0304 32.7308 28.9162C32.7308 28.8127 32.6944 28.7306 32.6288 28.6735C32.5595 28.6092 32.4574 28.5735 32.3225 28.5735H31.7829V29.2589ZM32.3808 30.5724C32.5157 30.5724 32.6215 30.5438 32.7017 30.4867C32.7782 30.4225 32.8183 30.3297 32.8183 30.2155C32.8183 30.1012 32.7782 30.012 32.7017 29.9442C32.6215 29.8799 32.5157 29.8442 32.3808 29.8442H31.7829V30.5724H32.3808Z" fill="#9E9E9E"/>
<path d="M36.3391 29.9014C36.3391 29.6373 36.3865 29.4017 36.4849 29.2018C36.5907 29.0019 36.7328 28.852 36.9078 28.7449C37.0901 28.6307 37.2943 28.5736 37.5203 28.5736C37.7026 28.5736 37.863 28.6129 38.0016 28.6878C38.1474 28.7664 38.2568 28.8592 38.337 28.9734V28.6164H39.1536V31.215H38.337V30.8438C38.2568 30.9687 38.1474 31.0686 38.0016 31.1436C37.863 31.2185 37.699 31.2578 37.5057 31.2578C37.2906 31.2578 37.0901 31.2007 36.9078 31.0865C36.7328 30.9723 36.5907 30.8152 36.4849 30.6153C36.3865 30.4154 36.3391 30.1798 36.3391 29.9014ZM38.337 29.9157C38.337 29.7158 38.2786 29.5588 38.162 29.4445C38.0526 29.3303 37.9177 29.2732 37.7537 29.2732C37.5859 29.2732 37.4474 29.3303 37.3307 29.4445C37.2214 29.5588 37.1703 29.7123 37.1703 29.9014C37.1703 30.1013 37.2214 30.2655 37.3307 30.3869C37.4474 30.5011 37.5859 30.5582 37.7537 30.5582C37.9177 30.5582 38.0526 30.5011 38.162 30.3869C38.2786 30.2727 38.337 30.1156 38.337 29.9157Z" fill="#9E9E9E"/>
<path d="M43.222 31.2578C42.9886 31.2578 42.7772 31.2185 42.5949 31.1436C42.409 31.0579 42.2631 30.9508 42.1574 30.8152C42.059 30.6831 42.0007 30.5296 41.9824 30.3583H42.7991C42.8064 30.4547 42.8465 30.5296 42.9157 30.5868C42.9923 30.6367 43.0907 30.6581 43.2074 30.6581C43.3022 30.6581 43.3824 30.6403 43.4407 30.601C43.499 30.5653 43.5282 30.5154 43.5282 30.4583C43.5282 30.3833 43.4845 30.3262 43.397 30.2869C43.3168 30.2512 43.1928 30.212 43.0178 30.1727C42.8209 30.1263 42.6605 30.0799 42.5366 30.0299C42.409 29.9835 42.296 29.9086 42.2012 29.8015C42.1137 29.698 42.0699 29.5552 42.0699 29.3732C42.0699 29.2304 42.1137 29.0983 42.2012 28.9734C42.2887 28.852 42.409 28.7556 42.5657 28.6878C42.7298 28.6129 42.9303 28.5736 43.1636 28.5736C43.4918 28.5736 43.7506 28.6557 43.9365 28.8163C44.1298 28.9805 44.2428 29.1947 44.2719 29.4588H43.5282C43.5063 29.3732 43.4626 29.3018 43.397 29.2447C43.3277 29.1875 43.2402 29.159 43.1345 29.159C43.036 29.159 42.9631 29.1804 42.9157 29.2161C42.8647 29.2554 42.8428 29.3089 42.8428 29.3732C42.8428 29.441 42.8793 29.4945 42.9595 29.5302C43.036 29.5695 43.1636 29.6087 43.3386 29.6444C43.5319 29.6944 43.6923 29.7408 43.8199 29.7872C43.9438 29.8372 44.0532 29.9157 44.1407 30.0299C44.2355 30.137 44.2865 30.2798 44.2865 30.4583C44.2865 30.6117 44.2428 30.751 44.1553 30.8723C44.0678 30.9865 43.9402 31.0829 43.7761 31.1579C43.6193 31.2221 43.4334 31.2578 43.222 31.2578Z" fill="#9E9E9E"/>
<path d="M49.6877 29.8729C49.6877 29.9514 49.6804 30.0264 49.6731 30.1013H47.8357C47.843 30.2655 47.894 30.3869 47.9815 30.4725C48.0763 30.5582 48.193 30.601 48.3315 30.601C48.5357 30.601 48.6815 30.5225 48.769 30.3583H49.6294C49.5783 30.5225 49.4981 30.6724 49.3815 30.8152C49.2721 30.9508 49.1336 31.0579 48.9586 31.1436C48.7836 31.2185 48.5831 31.2578 48.3607 31.2578C48.1055 31.2578 47.8794 31.2078 47.6753 31.1008C47.4711 30.9865 47.3107 30.8295 47.194 30.6296C47.0774 30.4226 47.019 30.1834 47.019 29.9157C47.019 29.6409 47.0701 29.4017 47.1795 29.2018C47.2961 29.0019 47.4565 28.852 47.6607 28.7449C47.8648 28.6307 48.0982 28.5736 48.3607 28.5736C48.6232 28.5736 48.8492 28.6271 49.0461 28.7307C49.2502 28.8377 49.4033 28.9877 49.5127 29.1875C49.6294 29.3803 49.6877 29.6087 49.6877 29.8729ZM48.8565 29.6587C48.8565 29.5266 48.8054 29.4231 48.7107 29.3446C48.6122 29.2589 48.4956 29.2161 48.3607 29.2161C48.2221 29.2161 48.1055 29.2554 48.0107 29.3303C47.9122 29.4089 47.8539 29.5159 47.8357 29.6587H48.8565Z" fill="#9E9E9E"/>
<path d="M52.3469 29.9014C52.3469 29.6373 52.3943 29.4017 52.4928 29.2018C52.5985 29.0019 52.7407 28.852 52.9157 28.7449C53.0979 28.6307 53.3021 28.5736 53.5281 28.5736C53.7031 28.5736 53.8563 28.6129 53.9948 28.6878C54.1406 28.7556 54.2573 28.852 54.3448 28.9734V27.7598H55.1614V31.215H54.3448V30.8437C54.2646 30.9687 54.1552 31.0686 54.0094 31.1436C53.8708 31.2185 53.7104 31.2578 53.5281 31.2578C53.3021 31.2578 53.0979 31.2007 52.9157 31.0865C52.7407 30.9722 52.5985 30.8152 52.4928 30.6153C52.3943 30.4154 52.3469 30.1798 52.3469 29.9014ZM54.3448 29.9157C54.3448 29.7158 54.2864 29.5588 54.1698 29.4445C54.0604 29.3303 53.9255 29.2732 53.7615 29.2732C53.5938 29.2732 53.4552 29.3303 53.3386 29.4445C53.2292 29.5588 53.1781 29.7122 53.1781 29.9014C53.1781 30.1013 53.2292 30.2655 53.3386 30.3869C53.4552 30.5011 53.5938 30.5582 53.7615 30.5582C53.9255 30.5582 54.0604 30.5011 54.1698 30.3869C54.2864 30.2726 54.3448 30.1156 54.3448 29.9157Z" fill="#9E9E9E"/>
<path d="M62.352 28.9734C62.4286 28.8591 62.5343 28.7663 62.6729 28.6878C62.8187 28.6129 62.9828 28.5736 63.1687 28.5736C63.3911 28.5736 63.5916 28.6307 63.7666 28.7449C63.9489 28.852 64.091 29.0019 64.1895 29.2018C64.2952 29.4017 64.3499 29.6373 64.3499 29.9014C64.3499 30.1798 64.2952 30.4154 64.1895 30.6153C64.091 30.8152 63.9489 30.9722 63.7666 31.0865C63.5916 31.2007 63.3911 31.2578 63.1687 31.2578C62.9828 31.2578 62.8187 31.2185 62.6729 31.1436C62.5343 31.0686 62.4286 30.9687 62.352 30.8437V31.215H61.5354V27.7598H62.352V28.9734ZM63.5187 29.9014C63.5187 29.7122 63.4603 29.5588 63.3437 29.4445C63.2343 29.3303 63.0994 29.2732 62.9354 29.2732C62.7677 29.2732 62.6291 29.3303 62.5125 29.4445C62.4031 29.5588 62.352 29.7158 62.352 29.9157C62.352 30.1156 62.4031 30.2726 62.5125 30.3869C62.6291 30.5011 62.7677 30.5582 62.9354 30.5582C63.0885 30.5582 63.227 30.5011 63.3437 30.3869C63.4603 30.2655 63.5187 30.1013 63.5187 29.9014Z" fill="#9E9E9E"/>
<path d="M67.9807 27.7598V31.215H67.1641V27.7598H67.9807Z" fill="#9E9E9E"/>
<path d="M72.1699 31.2578C71.9147 31.2578 71.6813 31.2078 71.4699 31.1008C71.2657 30.9865 71.098 30.8295 70.9741 30.6296C70.8574 30.4226 70.7991 30.1834 70.7991 29.9157C70.7991 29.6516 70.8574 29.416 70.9741 29.2161C71.098 29.0091 71.2657 28.852 71.4699 28.7449C71.6813 28.6307 71.922 28.5736 72.1844 28.5736C72.4469 28.5736 72.6803 28.6307 72.8844 28.7449C73.0959 28.852 73.2636 29.0091 73.3802 29.2161C73.5042 29.416 73.5698 29.6516 73.5698 29.9157C73.5698 30.1834 73.5042 30.4226 73.3802 30.6296C73.2636 30.8295 73.0959 30.9865 72.8844 31.1008C72.6693 31.2078 72.4324 31.2578 72.1699 31.2578ZM72.1699 30.5582C72.323 30.5582 72.4542 30.5082 72.5636 30.4012C72.6803 30.2869 72.7386 30.1263 72.7386 29.9157C72.7386 29.7087 72.6839 29.5445 72.5782 29.4303C72.4688 29.316 72.3376 29.2589 72.1844 29.2589C72.0277 29.2589 71.8964 29.316 71.7907 29.4303C71.6813 29.5445 71.6303 29.7087 71.6303 29.9157C71.6303 30.1263 71.6777 30.2869 71.7761 30.4012C71.8819 30.5082 72.0131 30.5582 72.1699 30.5582Z" fill="#9E9E9E"/>
<path d="M76.2273 29.9157C76.2273 29.6409 76.2783 29.4017 76.3877 29.2018C76.5044 29.0019 76.6648 28.852 76.8689 28.7449C77.0731 28.6307 77.3064 28.5736 77.5689 28.5736C77.897 28.5736 78.1741 28.6593 78.4001 28.8306C78.6225 29.0019 78.7684 29.2447 78.8376 29.5588H77.9772C77.897 29.3589 77.7585 29.2589 77.5543 29.2589C77.3976 29.2589 77.2773 29.316 77.1898 29.4303C77.1023 29.5445 77.0585 29.7087 77.0585 29.9157C77.0585 30.1263 77.1023 30.2869 77.1898 30.4012C77.2773 30.5154 77.3976 30.5725 77.5543 30.5725C77.7585 30.5725 77.897 30.4725 77.9772 30.2727H78.8376C78.7684 30.5796 78.6225 30.8223 78.4001 31.0008C78.1741 31.1721 77.897 31.2578 77.5689 31.2578C77.3064 31.2578 77.0731 31.2078 76.8689 31.1008C76.6648 30.9865 76.5044 30.8295 76.3877 30.6296C76.2783 30.4226 76.2273 30.1834 76.2273 29.9157Z" fill="#9E9E9E"/>
<path d="M83.2966 31.215L82.48 30.1156V31.215H81.6633V27.7598H82.48V29.673L83.282 28.6164H84.2882L83.1945 29.9157L84.3028 31.215H83.2966Z" fill="#9E9E9E"/>
<path d="M86.8403 29.9157C86.8403 29.6409 86.8914 29.4017 87.0007 29.2018C87.1174 29.0019 87.2778 28.852 87.482 28.7449C87.6861 28.6307 87.9195 28.5736 88.182 28.5736C88.5101 28.5736 88.7871 28.6593 89.0132 28.8306C89.2356 29.0019 89.3814 29.2447 89.4507 29.5588H88.5903C88.5101 29.3589 88.3715 29.2589 88.1674 29.2589C88.0106 29.2589 87.8903 29.316 87.8028 29.4303C87.7153 29.5445 87.6716 29.7087 87.6716 29.9157C87.6716 30.1263 87.7153 30.2869 87.8028 30.4012C87.8903 30.5154 88.0106 30.5725 88.1674 30.5725C88.3715 30.5725 88.5101 30.4725 88.5903 30.2727H89.4507C89.3814 30.5796 89.2356 30.8223 89.0132 31.0008C88.7871 31.1721 88.5101 31.2578 88.182 31.2578C87.9195 31.2578 87.6861 31.2078 87.482 31.1008C87.2778 30.9865 87.1174 30.8295 87.0007 30.6296C86.8914 30.4226 86.8403 30.1834 86.8403 29.9157Z" fill="#9E9E9E"/>
<path d="M93.9096 28.5879C94.2195 28.5879 94.4674 28.6878 94.6534 28.8877C94.8357 29.0805 94.9305 29.3446 94.9305 29.6873V31.215H94.1138V29.8015C94.1138 29.6301 94.0628 29.4981 93.968 29.4017C93.8805 29.2982 93.7565 29.2446 93.6034 29.2446C93.4466 29.2446 93.319 29.2982 93.2243 29.4017C93.1368 29.4981 93.093 29.6301 93.093 29.8015V31.215H92.2764V27.7598H93.093V28.9591C93.1805 28.8449 93.2899 28.7556 93.4284 28.6878C93.5742 28.6236 93.7347 28.5879 93.9096 28.5879Z" fill="#9E9E9E"/>
<path d="M97.7207 29.9014C97.7207 29.6373 97.7681 29.4017 97.8665 29.2018C97.9723 29.0019 98.1144 28.852 98.2894 28.7449C98.4717 28.6307 98.6759 28.5736 98.9019 28.5736C99.0842 28.5736 99.2446 28.6129 99.3832 28.6878C99.529 28.7664 99.6384 28.8592 99.7186 28.9734V28.6164H100.535V31.215H99.7186V30.8438C99.6384 30.9687 99.529 31.0686 99.3832 31.1436C99.2446 31.2185 99.0806 31.2578 98.8873 31.2578C98.6722 31.2578 98.4717 31.2007 98.2894 31.0865C98.1144 30.9723 97.9723 30.8152 97.8665 30.6153C97.7681 30.4154 97.7207 30.1798 97.7207 29.9014ZM99.7186 29.9157C99.7186 29.7158 99.6602 29.5588 99.5436 29.4445C99.4342 29.3303 99.2993 29.2732 99.1352 29.2732C98.9675 29.2732 98.829 29.3303 98.7123 29.4445C98.603 29.5588 98.5519 29.7123 98.5519 29.9014C98.5519 30.1013 98.603 30.2655 98.7123 30.3869C98.829 30.5011 98.9675 30.5582 99.1352 30.5582C99.2993 30.5582 99.4342 30.5011 99.5436 30.3869C99.6602 30.2727 99.7186 30.1156 99.7186 29.9157Z" fill="#9E9E9E"/>
<path d="M103.918 28.3452C103.78 28.3452 103.663 28.3023 103.568 28.2167C103.481 28.131 103.437 28.0275 103.437 27.9026C103.437 27.7812 103.481 27.6813 103.568 27.6027C103.663 27.5171 103.78 27.4742 103.918 27.4742C104.064 27.4742 104.181 27.5171 104.268 27.6027C104.356 27.6813 104.399 27.7812 104.399 27.9026C104.399 28.0275 104.356 28.131 104.268 28.2167C104.181 28.3023 104.064 28.3452 103.918 28.3452ZM104.327 28.6165V31.215H103.51V28.6165H104.327Z" fill="#9E9E9E"/>
<path d="M108.924 28.5879C109.234 28.5879 109.482 28.6878 109.668 28.8877C109.861 29.0805 109.96 29.3446 109.96 29.6873V31.215H109.143V29.8015C109.143 29.6302 109.092 29.4981 108.997 29.4017C108.91 29.2982 108.786 29.2447 108.632 29.2447C108.476 29.2447 108.348 29.2982 108.253 29.4017C108.166 29.4981 108.122 29.6302 108.122 29.8015V31.215H107.305V28.6164H108.122V28.9591C108.21 28.8449 108.319 28.7557 108.457 28.6878C108.592 28.6236 108.749 28.5879 108.924 28.5879Z" fill="#9E9E9E"/>
<path d="M117.505 30.4726L118.089 28.6165H118.949L118.016 31.215H117.009L116.062 28.6165H116.936L117.505 30.4726Z" fill="#9E9E9E"/>
<path d="M122.896 31.2578C122.64 31.2578 122.407 31.2078 122.196 31.1008C121.992 30.9865 121.824 30.8295 121.7 30.6296C121.583 30.4226 121.525 30.1834 121.525 29.9157C121.525 29.6516 121.583 29.416 121.7 29.2161C121.824 29.0091 121.992 28.852 122.196 28.7449C122.407 28.6307 122.648 28.5736 122.91 28.5736C123.173 28.5736 123.406 28.6307 123.61 28.7449C123.822 28.852 123.989 29.0091 124.106 29.2161C124.23 29.416 124.296 29.6516 124.296 29.9157C124.296 30.1834 124.23 30.4226 124.106 30.6296C123.989 30.8295 123.822 30.9865 123.61 31.1008C123.395 31.2078 123.158 31.2578 122.896 31.2578ZM122.896 30.5582C123.049 30.5582 123.18 30.5082 123.289 30.4012C123.406 30.2869 123.464 30.1263 123.464 29.9157C123.464 29.7087 123.41 29.5445 123.304 29.4303C123.195 29.316 123.063 29.2589 122.91 29.2589C122.754 29.2589 122.622 29.316 122.517 29.4303C122.407 29.5445 122.356 29.7087 122.356 29.9157C122.356 30.1263 122.404 30.2869 122.502 30.4012C122.608 30.5082 122.739 30.5582 122.896 30.5582Z" fill="#9E9E9E"/>
<path d="M128.601 30.544V31.215H128.193C127.89 31.215 127.657 31.1436 127.493 31.0009C127.325 30.8581 127.245 30.6296 127.245 30.3155V29.2733H126.924V28.6165H127.245V27.974H128.061V28.6165H128.601V29.2733H128.061V30.3155C128.061 30.3941 128.08 30.4512 128.12 30.4869C128.156 30.5261 128.222 30.544 128.309 30.544H128.601Z" fill="#9E9E9E"/>
<path d="M131.847 28.3452C131.709 28.3452 131.592 28.3023 131.497 28.2167C131.41 28.131 131.366 28.0275 131.366 27.9026C131.366 27.7812 131.41 27.6813 131.497 27.6027C131.592 27.5171 131.709 27.4742 131.847 27.4742C131.993 27.4742 132.11 27.5171 132.197 27.6027C132.285 27.6813 132.328 27.7812 132.328 27.9026C132.328 28.0275 132.285 28.131 132.197 28.2167C132.11 28.3023 131.993 28.3452 131.847 28.3452ZM132.256 28.6165V31.215H131.439V28.6165H132.256Z" fill="#9E9E9E"/>
<path d="M136.853 28.5879C137.163 28.5879 137.411 28.6878 137.597 28.8877C137.79 29.0805 137.888 29.3446 137.888 29.6873V31.215H137.072V29.8015C137.072 29.6302 137.021 29.4981 136.926 29.4017C136.838 29.2982 136.715 29.2447 136.561 29.2447C136.405 29.2447 136.277 29.2982 136.182 29.4017C136.095 29.4981 136.051 29.6302 136.051 29.8015V31.215H135.234V28.6164H136.051V28.9591C136.139 28.8449 136.248 28.7557 136.386 28.6878C136.521 28.6236 136.678 28.5879 136.853 28.5879Z" fill="#9E9E9E"/>
<path d="M141.86 28.5736C142.042 28.5736 142.203 28.6129 142.341 28.6878C142.487 28.7664 142.597 28.8592 142.677 28.9734V28.6164H143.493V31.215C143.493 31.4506 143.442 31.6647 143.348 31.8575C143.249 32.0574 143.1 32.2144 142.896 32.3286C142.699 32.4429 142.458 32.5 142.166 32.5C141.765 32.5 141.445 32.4072 141.204 32.2287C140.96 32.0467 140.817 31.8004 140.781 31.4863H141.583C141.612 31.5791 141.674 31.6576 141.773 31.7147C141.867 31.7789 141.984 31.8146 142.123 31.8146C142.287 31.8146 142.418 31.7647 142.516 31.6719C142.622 31.5755 142.677 31.422 142.677 31.215V30.8438C142.597 30.9687 142.487 31.0686 142.341 31.1436C142.203 31.2185 142.042 31.2578 141.86 31.2578C141.634 31.2578 141.43 31.2007 141.248 31.0865C141.073 30.9723 140.931 30.8152 140.825 30.6153C140.726 30.4154 140.679 30.1798 140.679 29.9014C140.679 29.6373 140.726 29.4017 140.825 29.2018C140.931 29.0019 141.073 28.852 141.248 28.7449C141.43 28.6307 141.634 28.5736 141.86 28.5736ZM142.677 29.9157C142.677 29.7158 142.618 29.5588 142.502 29.4445C142.392 29.3303 142.258 29.2732 142.093 29.2732C141.926 29.2732 141.787 29.3303 141.671 29.4445C141.561 29.5588 141.51 29.7123 141.51 29.9014C141.51 30.1013 141.561 30.2655 141.671 30.3869C141.787 30.5011 141.926 30.5582 142.093 30.5582C142.258 30.5582 142.392 30.5011 142.502 30.3869C142.618 30.2727 142.677 30.1156 142.677 29.9157Z" fill="#9E9E9E"/>
</svg>
